<svg xmlns="http://www.w3.org/2000/svg" width="135.152" height="32" viewBox="0 0 135.152 32"><defs><style>.a{fill:#1a75cf;}.a,.b{fill-rule:evenodd;}.b{fill:#ffc220;}</style></defs><g transform="translate(0 -0.07)"><path class="a" d="M74.5,18.548a2.464,2.464,0,0,1-2.625,2.537,1.716,1.716,0,0,1-1.865-1.844c0-1.917,2.1-2.447,4.49-2.434Zm3.75-3.339c0-3.162-1.344-5.943-5.885-5.943a10.726,10.726,0,0,0-5.193,1.244l.739,2.54a7.6,7.6,0,0,1,3.787-1.068c2.3-.007,2.682,1.31,2.682,2.153v.2c-5.023-.008-8.2,1.738-8.2,5.3a4.191,4.191,0,0,0,4.427,4.21,5.02,5.02,0,0,0,4.04-1.8h.085s.574,2.411,3.736,1.488a20.468,20.468,0,0,1-.22-3.361ZM0,4.961s3.282,13.511,3.8,15.7c.611,2.559,1.714,3.5,4.888,2.866l2.05-8.376c.519-2.082.868-3.565,1.2-5.682H12a55.51,55.51,0,0,0,1,5.689s.833,3.8,1.262,5.8,1.62,3.254,4.73,2.57l4.883-18.57H19.932L18.265,12.99c-.449,2.337-.855,4.163-1.169,6.3h-.055c-.286-2.117-.648-3.871-1.1-6.147L14.2,4.96H10.1L8.239,12.938c-.526,2.424-1.019,4.38-1.332,6.445H6.852c-.321-1.944-.748-4.4-1.211-6.75,0,0-1.1-5.705-1.49-7.671H0M31.327,18.548A2.464,2.464,0,0,1,28.7,21.086a1.715,1.715,0,0,1-1.863-1.844c0-1.917,2.1-2.447,4.49-2.434Zm3.749-3.339c0-3.162-1.343-5.943-5.884-5.943A10.721,10.721,0,0,0,24,10.51l.737,2.54a7.6,7.6,0,0,1,3.787-1.068c2.307-.007,2.683,1.31,2.683,2.153v.2c-5.024-.008-8.2,1.738-8.2,5.3a4.19,4.19,0,0,0,4.424,4.21,5.026,5.026,0,0,0,4.042-1.8h.085s.574,2.411,3.735,1.488a20.62,20.62,0,0,1-.22-3.361V15.209Zm6.257,4.38V4.961H37.58v18.57h3.753V19.589M90.439,4.961v13.7c0,1.888.354,3.212,1.111,4.02A4.152,4.152,0,0,0,94.6,23.846a8.9,8.9,0,0,0,2.716-.4L97.273,20.5a5.682,5.682,0,0,1-1.425.17c-1.278,0-1.708-.824-1.708-2.52v-5.24h3.268V9.353H94.139V4.961h-3.7" transform="translate(0 1.824)"/><path class="a" d="M68.805,8.815V22.765h3.872V15.622a5.359,5.359,0,0,1,.082-1.03,2.928,2.928,0,0,1,3.062-2.452,7.025,7.025,0,0,1,1.116.1V8.587a3.713,3.713,0,0,0-.853-.087,4.09,4.09,0,0,0-3.779,2.947H72.2V8.815H68.807l29.274-1.8m-66.065,1.8V22.765h3.773V14.584a3.259,3.259,0,0,1,.179-1.142,2.553,2.553,0,0,1,2.292-1.786c1.523,0,2.235,1.292,2.235,3.158v7.952h3.769v-8.28a3.905,3.905,0,0,1,.157-1.131,2.381,2.381,0,0,1,2.264-1.7c1.543,0,2.283,1.27,2.283,3.466v7.644H52.74V14.549c0-4.332-2.189-6.048-4.662-6.048a5,5,0,0,0-2.739.758,5.851,5.851,0,0,0-1.759,1.737h-.055A3.962,3.962,0,0,0,39.7,8.5a4.365,4.365,0,0,0-4.044,2.211H35.6V8.816H32.016" transform="translate(11.945 2.59)"/><path class="b" d="M91.015,9.949l.737-8.372C91.753.75,90.787.07,89.573.07S87.4.75,87.4,1.578l.736,8.372a1.609,1.609,0,0,0,2.881,0Zm-6,1.807L78.17,6.93c-.711-.413-1.78.085-2.385,1.14s-.5,2.234.21,2.647l7.584,3.548a1.372,1.372,0,0,0,1.493-.81l0,0A1.373,1.373,0,0,0,85.019,11.756ZM95.57,14.265l7.585-3.548c.714-.413.816-1.593.213-2.646s-1.679-1.554-2.389-1.14l-6.849,4.824a1.379,1.379,0,0,0-.048,1.7l0,0a1.366,1.366,0,0,0,1.491.81Zm-4.555,7.926.737,8.372c0,.829-.965,1.508-2.179,1.508S87.4,31.392,87.4,30.562l.736-8.372a1.609,1.609,0,0,1,2.881,0Zm4.555-4.312,7.585,3.543c.714.415.816,1.594.213,2.65s-1.679,1.552-2.389,1.14l-6.849-4.822a1.384,1.384,0,0,1-.048-1.705,1.358,1.358,0,0,1,1.488-.806Zm-10.551,2.51L78.17,25.211c-.711.412-1.78-.088-2.385-1.14s-.5-2.235.21-2.65l7.584-3.543a1.361,1.361,0,0,1,1.493.806h0a1.374,1.374,0,0,1-.049,1.7ZM105.6,24.65h.157c.172,0,.321-.052.321-.2,0-.121-.074-.2-.3-.2a.91.91,0,0,0-.178.015v.39Zm0,.7h-.231V24.1a2.419,2.419,0,0,1,.433-.038.624.624,0,0,1,.4.1.317.317,0,0,1-.121.563v.014a.375.375,0,0,1,.21.3.966.966,0,0,0,.089.313h-.239a.863.863,0,0,1-.1-.33c-.03-.135-.113-.195-.291-.195h-.15v.525Zm.21-1.642a.986.986,0,0,0,.014,1.972.936.936,0,0,0,.934-.982.949.949,0,0,0-.941-.989h-.007Zm.014-.209a1.2,1.2,0,1,1-.007,2.4,1.2,1.2,0,1,1,0-2.4Z" transform="translate(28.127)"/></g></svg>